<svg width="200" height="200" viewBox="0 0 200 200" fill="none" xmlns="http://www.w3.org/2000/svg">
<path d="M152.223 113.69C158.398 115.375 163.769 119.225 167.361 124.547C170.953 129.87 172.527 136.309 171.791 142.701C171.423 145.893 170.496 148.989 169.044 151.852C167.613 154.675 165.691 157.223 163.374 159.374C161.009 161.573 158.269 163.32 155.283 164.539C152.387 165.724 149.306 166.382 146.185 166.498C139.792 166.731 133.521 164.649 128.525 160.634C127.98 160.196 127.455 159.737 126.944 159.257C126.822 159.141 126.692 159.018 126.569 158.901C126.508 158.84 126.447 158.778 126.385 158.716C126.385 158.716 126.365 158.703 126.379 158.696C126.392 158.696 126.399 158.682 126.413 158.675C126.433 158.661 126.454 158.648 126.474 158.641L126.603 158.566C126.944 158.367 127.278 158.155 127.612 157.949C128.968 157.1 130.284 156.189 131.558 155.216C134.189 153.209 136.582 150.996 138.797 148.53C147.371 138.967 152.148 126.568 152.223 113.697V113.69Z" fill="#DADEE7"/>
<path d="M74.1302 67.7594C72.4945 61.5395 73.1283 54.9427 75.9159 49.1543C78.7103 43.3659 83.4676 38.7763 89.3426 36.2212C95.2177 33.6592 101.802 33.303 107.915 35.2073C114.029 37.1117 119.256 41.1601 122.65 46.6129C126.045 52.0656 127.387 58.5596 126.426 64.9166C126.324 65.6153 126.188 66.3003 126.031 66.9854C125.99 67.1566 125.949 67.321 125.908 67.4923C125.888 67.5745 125.867 67.6635 125.84 67.7457C125.84 67.7457 125.84 67.7663 125.84 67.7594C125.84 67.7594 125.826 67.7594 125.826 67.7526C125.813 67.7526 125.806 67.7389 125.792 67.732C125.772 67.7183 125.752 67.7046 125.731 67.6978C125.69 67.6704 125.642 67.6498 125.602 67.6224C125.261 67.4306 124.913 67.2388 124.566 67.0539C123.155 66.3003 121.717 65.6085 120.238 64.9851C117.191 63.6973 114.097 62.7245 110.859 62.0327C98.3324 59.3543 85.2601 61.3956 74.137 67.7663L74.1302 67.7594Z" fill="#DADEE7"/>
<path d="M73.5986 158.696C69.0594 163.23 63.0549 165.977 56.6687 166.443C50.2825 166.909 43.9508 165.06 38.8118 161.223C36.2423 159.312 34.0409 156.949 32.3029 154.257C30.5854 151.599 29.3518 148.653 28.6566 145.564C27.9478 142.406 27.8115 139.145 28.2545 135.939C28.6838 132.829 29.6517 129.815 31.117 127.041C34.1159 121.355 39.0435 116.944 45.0004 114.601C45.6479 114.348 46.309 114.115 46.9769 113.916C47.1405 113.868 47.3109 113.82 47.4744 113.772C47.5562 113.752 47.638 113.724 47.7198 113.704C47.7266 113.704 47.7402 113.69 47.7402 113.704C47.7402 113.717 47.7402 113.731 47.7402 113.738C47.7402 113.765 47.7402 113.786 47.7402 113.813C47.7402 113.861 47.7402 113.909 47.7402 113.964C47.7402 114.361 47.7539 114.759 47.7675 115.156C47.822 116.766 47.9515 118.362 48.1492 119.958C48.5649 123.253 49.2738 126.438 50.2893 129.603C54.2423 141.844 62.5369 152.202 73.5918 158.703L73.5986 158.696Z" fill="#DADEE7"/>
<path d="M47.7402 113.69C47.6448 97.6468 54.8489 82.4462 67.3078 72.4107C69.0117 71.0407 70.7838 69.7871 72.6444 68.6362C73.1011 68.3554 73.5577 68.0814 74.0212 67.8142L74.1098 67.7663C74.1098 67.7663 74.1166 67.7663 74.1234 67.7663C74.1234 67.7663 74.1302 67.7594 74.1302 67.7663C74.1302 67.7731 74.1302 67.78 74.1302 67.7868C74.1302 67.8005 74.137 67.8142 74.1438 67.8279C74.1575 67.8827 74.1711 67.9375 74.1847 67.9923C74.212 68.1019 74.2461 68.2115 74.2733 68.3211C74.3347 68.5403 74.4028 68.7596 74.471 68.9788C74.7504 69.8693 75.0708 70.7393 75.4456 71.5887C77.0064 75.2056 79.3441 78.432 82.2885 81.0419C88.1431 86.2344 95.9469 88.5909 103.676 87.5017C111.357 86.4262 118.193 82.0489 122.412 75.507C123.427 73.9383 124.252 72.3011 124.927 70.5543C125.247 69.7186 125.527 68.876 125.758 68.0129C125.772 67.9581 125.786 67.9101 125.799 67.8553C125.806 67.8279 125.813 67.8005 125.82 67.7731C125.82 67.7731 125.82 67.7526 125.826 67.7594C125.833 67.7594 125.84 67.7663 125.847 67.7731C125.861 67.78 125.874 67.7868 125.888 67.8005C125.997 67.8622 126.113 67.9307 126.222 67.9923C126.447 68.1225 126.672 68.2526 126.89 68.3896C127.34 68.6568 127.776 68.9377 128.219 69.2185C131.831 71.5544 135.143 74.3219 138.074 77.473C143.704 83.5012 147.827 90.7829 150.131 98.7223C151.255 102.599 151.91 106.484 152.135 110.518C152.189 111.491 152.216 112.457 152.21 113.43C152.21 113.491 152.21 113.553 152.21 113.621C152.21 113.635 152.21 113.656 152.21 113.669V113.69C152.21 113.69 152.196 113.69 152.189 113.69C152.162 113.683 152.135 113.676 152.107 113.669C152.005 113.642 151.896 113.615 151.794 113.587C151.583 113.532 151.371 113.484 151.16 113.436C150.737 113.341 150.308 113.252 149.879 113.176C148.209 112.882 146.553 112.745 144.862 112.765C136.793 112.868 129.2 116.629 124.204 122.999C119.324 129.219 117.423 137.268 119.004 145.03C119.733 148.612 121.178 152.003 123.257 155.003C123.755 155.723 124.279 156.408 124.845 157.072C125.118 157.401 125.404 157.716 125.697 158.031C125.84 158.189 125.983 158.339 126.133 158.49C126.167 158.524 126.208 158.566 126.242 158.6L126.297 158.655C126.297 158.655 126.317 158.675 126.324 158.682C126.324 158.682 126.331 158.689 126.338 158.696C126.338 158.696 126.338 158.703 126.338 158.709C126.229 158.771 126.126 158.833 126.017 158.894C124.279 159.894 122.507 160.792 120.667 161.593C112.979 164.929 104.603 166.361 96.2536 165.758C91.9939 165.45 87.7818 164.621 83.7198 163.292C81.7364 162.641 79.8076 161.874 77.9197 160.991C76.9928 160.559 76.0795 160.1 75.1798 159.614C74.7368 159.374 74.2938 159.127 73.8576 158.874C73.8031 158.84 73.7485 158.812 73.694 158.778C73.6668 158.764 73.6395 158.744 73.6122 158.73C73.6122 158.73 73.5986 158.723 73.5918 158.716C73.5918 158.716 73.5918 158.716 73.585 158.716C73.585 158.716 73.5713 158.716 73.5781 158.716L73.6054 158.689C73.6804 158.613 73.7554 158.531 73.8371 158.456C73.9871 158.298 74.1438 158.141 74.287 157.983C79.3782 152.489 81.9545 145.105 81.3888 137.618C80.7822 129.637 76.6724 122.342 70.1772 117.718C63.6615 113.08 55.4282 111.614 47.7266 113.71L47.7402 113.69Z" fill="#DADEE7"/>
</svg>
