<svg width="1024" height="1024" viewBox="0 0 1024 1024" fill="none" xmlns="http://www.w3.org/2000/svg">
<path d="M771.803 578.803C802.513 587.184 829.223 606.33 847.087 632.801C864.95 659.272 872.78 691.296 869.119 723.082C867.289 738.957 862.679 754.356 855.459 768.597C848.341 782.633 838.782 795.306 827.257 806.004C815.495 816.94 801.869 825.627 787.023 831.691C772.617 837.585 757.296 840.855 741.771 841.435C709.976 842.593 678.792 832.236 653.946 812.272C651.234 810.092 648.624 807.809 646.082 805.425C645.472 804.845 644.828 804.232 644.218 803.653C643.913 803.346 643.608 803.04 643.303 802.733C643.303 802.733 643.201 802.665 643.269 802.631C643.336 802.631 643.37 802.563 643.438 802.529C643.54 802.461 643.642 802.392 643.743 802.358L644.387 801.984C646.082 800.996 647.743 799.94 649.404 798.917C656.149 794.693 662.691 790.162 669.03 785.324C682.114 775.342 694.011 764.338 705.028 752.074C747.669 704.514 771.43 642.851 771.803 578.837V578.803Z" fill="#DADEE7"/>
<path d="M383.423 350.375C375.288 319.441 378.44 286.633 392.304 257.845C406.201 229.058 429.861 206.232 459.08 193.524C488.298 180.783 521.042 179.011 551.447 188.482C581.852 197.953 607.85 218.088 624.73 245.206C641.611 272.324 648.288 304.621 643.509 336.236C643.001 339.711 642.323 343.118 641.543 346.525C641.34 347.377 641.136 348.194 640.933 349.046C640.831 349.455 640.729 349.898 640.594 350.306C640.594 350.306 640.594 350.409 640.594 350.375C640.594 350.375 640.526 350.375 640.526 350.34C640.458 350.34 640.424 350.272 640.357 350.238C640.255 350.17 640.153 350.102 640.052 350.068C639.848 349.932 639.611 349.829 639.408 349.693C637.713 348.739 635.984 347.785 634.255 346.865C627.239 343.118 620.087 339.677 612.731 336.577C597.58 330.172 582.191 325.334 566.09 321.893C503.789 308.573 438.776 318.725 383.457 350.409L383.423 350.375Z" fill="#DADEE7"/>
<path d="M380.777 802.63C358.202 825.183 328.34 838.844 296.579 841.161C264.818 843.477 233.329 834.279 207.771 815.201C194.992 805.696 184.043 793.942 175.4 780.553C166.858 767.335 160.723 752.686 157.265 737.321C153.74 721.615 153.062 705.399 155.266 689.455C157.401 673.988 162.214 658.998 169.502 645.2C184.416 616.924 208.923 594.984 238.549 583.333C241.769 582.072 245.057 580.914 248.379 579.926C249.192 579.687 250.039 579.449 250.853 579.21C251.26 579.108 251.666 578.972 252.073 578.87C252.107 578.87 252.175 578.802 252.175 578.87C252.175 578.938 252.175 579.006 252.175 579.04C252.175 579.176 252.175 579.278 252.175 579.415C252.175 579.653 252.175 579.892 252.175 580.164C252.175 582.14 252.243 584.116 252.31 586.092C252.582 594.098 253.226 602.036 254.209 609.974C256.276 626.361 259.802 642.202 264.852 657.942C284.512 718.822 325.764 770.333 380.743 802.664L380.777 802.63Z" fill="#DADEE7"/>
<path d="M252.176 578.803C251.701 499.015 287.53 423.417 349.492 373.507C357.966 366.694 366.779 360.459 376.033 354.736C378.304 353.339 380.575 351.976 382.88 350.648L383.32 350.409C383.32 350.409 383.354 350.409 383.388 350.409C383.388 350.409 383.422 350.375 383.422 350.409C383.422 350.443 383.422 350.477 383.422 350.511C383.422 350.58 383.456 350.648 383.49 350.716C383.558 350.988 383.625 351.261 383.693 351.533C383.829 352.079 383.998 352.624 384.134 353.169C384.439 354.259 384.778 355.349 385.117 356.439C386.507 360.868 388.1 365.195 389.964 369.419C397.726 387.407 409.353 403.453 423.996 416.433C453.113 442.257 491.924 453.977 530.362 448.56C568.563 443.211 602.561 421.441 623.543 388.906C628.593 381.105 632.695 372.962 636.051 364.275C637.644 360.119 639.033 355.928 640.186 351.636C640.254 351.363 640.322 351.125 640.389 350.852C640.423 350.716 640.457 350.58 640.491 350.443C640.491 350.443 640.491 350.341 640.525 350.375C640.559 350.375 640.593 350.409 640.627 350.443C640.694 350.477 640.762 350.511 640.83 350.58C641.372 350.886 641.949 351.227 642.491 351.533C643.609 352.181 644.728 352.828 645.813 353.509C648.05 354.838 650.219 356.235 652.423 357.632C670.388 369.249 686.861 383.012 701.436 398.684C729.435 428.664 749.942 464.878 761.399 504.364C766.992 523.646 770.246 542.963 771.364 563.029C771.635 567.867 771.771 572.67 771.737 577.508C771.737 577.815 771.737 578.121 771.737 578.462C771.737 578.53 771.737 578.632 771.737 578.7V578.803C771.737 578.803 771.669 578.803 771.636 578.803C771.5 578.769 771.364 578.735 771.229 578.7C770.72 578.564 770.178 578.428 769.669 578.292C768.619 578.019 767.568 577.781 766.517 577.542C764.416 577.065 762.28 576.622 760.145 576.248C751.84 574.783 743.603 574.101 735.197 574.203C695.064 574.714 657.304 593.418 632.458 625.101C608.188 656.035 598.731 696.066 606.595 734.665C610.222 752.483 617.408 769.346 627.746 784.268C630.22 787.845 632.831 791.252 635.644 794.557C637 796.192 638.423 797.759 639.881 799.326C640.593 800.11 641.305 800.86 642.05 801.609C642.22 801.779 642.423 801.984 642.593 802.154L642.864 802.427C642.864 802.427 642.965 802.529 642.999 802.563C642.999 802.563 643.033 802.597 643.067 802.631C643.067 802.631 643.067 802.665 643.067 802.699C642.525 803.006 642.016 803.312 641.474 803.619C632.83 808.593 624.017 813.056 614.865 817.042C576.631 833.633 534.972 840.753 493.449 837.755C472.264 836.222 451.316 832.1 431.114 825.491C421.25 822.254 411.658 818.439 402.268 814.044C397.659 811.898 393.116 809.615 388.642 807.196C386.439 806.004 384.236 804.777 382.066 803.517C381.795 803.346 381.524 803.21 381.253 803.04C381.117 802.972 380.982 802.869 380.846 802.801C380.846 802.801 380.778 802.767 380.744 802.733C380.744 802.733 380.744 802.733 380.71 802.733C380.71 802.733 380.643 802.733 380.676 802.733L380.812 802.597C381.185 802.222 381.558 801.813 381.965 801.439C382.71 800.655 383.49 799.872 384.202 799.088C409.522 771.765 422.335 735.04 419.522 697.803C416.505 658.114 396.065 621.831 363.762 598.835C331.358 575.771 290.411 568.48 252.108 578.905L252.176 578.803Z" fill="#DADEE7"/>
</svg>
