<svg width="1024" height="1024" viewBox="0 0 1024 1024" fill="none" xmlns="http://www.w3.org/2000/svg">
<rect width="1024" height="1024" fill="#141618"/>
<path d="M771.803 578.802C802.513 587.183 829.223 606.329 847.087 632.8C864.95 659.272 872.78 691.296 869.119 723.081C867.289 738.957 862.679 754.356 855.459 768.597C848.341 782.633 838.782 795.306 827.257 806.004C815.496 816.94 801.869 825.627 787.023 831.691C772.617 837.585 757.296 840.855 741.771 841.435C709.977 842.593 678.792 832.236 653.946 812.272C651.234 810.092 648.624 807.809 646.082 805.424C645.472 804.845 644.828 804.232 644.218 803.653C643.913 803.346 643.608 803.04 643.303 802.733C643.303 802.733 643.201 802.665 643.269 802.631C643.337 802.631 643.37 802.563 643.438 802.529C643.54 802.46 643.642 802.392 643.743 802.358L644.387 801.984C646.082 800.996 647.743 799.939 649.404 798.917C656.149 794.693 662.691 790.162 669.03 785.324C682.114 775.342 694.011 764.338 705.028 752.074C747.669 704.514 771.43 642.851 771.803 578.836V578.802Z" fill="#DADEE7"/>
<path d="M383.421 350.375C375.286 319.441 378.438 286.633 392.302 257.845C406.199 229.058 429.859 206.232 459.078 193.524C488.296 180.783 521.04 179.011 551.445 188.482C581.85 197.953 607.848 218.088 624.728 245.206C641.609 272.324 648.286 304.621 643.507 336.236C642.998 339.711 642.32 343.118 641.541 346.525C641.337 347.377 641.134 348.194 640.931 349.046C640.829 349.455 640.727 349.898 640.592 350.307C640.592 350.307 640.592 350.409 640.592 350.375C640.592 350.375 640.524 350.375 640.524 350.341C640.456 350.341 640.422 350.273 640.354 350.238C640.253 350.17 640.151 350.102 640.049 350.068C639.846 349.932 639.609 349.83 639.405 349.693C637.711 348.739 635.982 347.786 634.253 346.866C627.237 343.118 620.085 339.677 612.729 336.577C597.577 330.172 582.189 325.335 566.088 321.894C503.787 308.573 438.774 318.725 383.455 350.409L383.421 350.375Z" fill="#DADEE7"/>
<path d="M380.777 802.63C358.202 825.183 328.34 838.845 296.579 841.161C264.818 843.478 233.328 834.279 207.771 815.201C194.992 805.696 184.043 793.943 175.4 780.554C166.858 767.335 160.723 752.686 157.265 737.321C153.74 721.616 153.062 705.399 155.266 689.455C157.401 673.988 162.214 658.998 169.502 645.201C184.416 616.924 208.923 594.984 238.548 583.333C241.769 582.072 245.057 580.914 248.378 579.926C249.192 579.687 250.039 579.449 250.853 579.21C251.26 579.108 251.666 578.972 252.073 578.87C252.107 578.87 252.175 578.802 252.175 578.87C252.175 578.938 252.175 579.006 252.175 579.04C252.175 579.176 252.175 579.278 252.175 579.415C252.175 579.653 252.175 579.892 252.175 580.164C252.175 582.14 252.243 584.116 252.31 586.092C252.582 594.098 253.226 602.036 254.209 609.974C256.276 626.361 259.801 642.203 264.852 657.942C284.512 718.822 325.763 770.333 380.743 802.664L380.777 802.63Z" fill="#DADEE7"/>
<path d="M252.174 578.802C251.7 499.014 287.528 423.416 349.49 373.506C357.964 366.693 366.777 360.458 376.031 354.735C378.302 353.338 380.573 351.975 382.878 350.647L383.319 350.408C383.319 350.408 383.352 350.408 383.386 350.408C383.386 350.408 383.42 350.374 383.42 350.408C383.42 350.442 383.42 350.476 383.42 350.51C383.42 350.579 383.454 350.647 383.488 350.715C383.556 350.987 383.624 351.26 383.691 351.532C383.827 352.078 383.996 352.623 384.132 353.168C384.437 354.258 384.776 355.348 385.115 356.438C386.505 360.867 388.098 365.194 389.962 369.418C397.724 387.406 409.351 403.452 423.994 416.432C453.111 442.256 491.922 453.976 530.36 448.559C568.561 443.21 602.559 421.441 623.541 388.905C628.591 381.104 632.693 372.961 636.048 364.274C637.642 360.118 639.031 355.927 640.184 351.635C640.252 351.362 640.319 351.124 640.387 350.851C640.421 350.715 640.455 350.579 640.489 350.442C640.489 350.442 640.489 350.34 640.523 350.374C640.557 350.374 640.591 350.408 640.624 350.442C640.692 350.476 640.76 350.51 640.828 350.579C641.37 350.885 641.946 351.226 642.489 351.532C643.607 352.18 644.726 352.827 645.811 353.508C648.048 354.837 650.217 356.234 652.42 357.631C670.385 369.248 686.859 383.012 701.434 398.683C729.432 428.663 749.94 464.878 761.397 504.363C766.989 523.645 770.243 542.962 771.362 563.028C771.633 567.866 771.769 572.67 771.735 577.507C771.735 577.814 771.735 578.12 771.735 578.461C771.735 578.529 771.735 578.631 771.735 578.7V578.802C771.735 578.802 771.667 578.802 771.633 578.802C771.498 578.768 771.362 578.734 771.226 578.7C770.718 578.563 770.176 578.427 769.667 578.291C768.616 578.018 767.566 577.78 766.515 577.541C764.413 577.064 762.278 576.621 760.142 576.247C751.838 574.782 743.601 574.1 735.195 574.203C695.062 574.714 657.301 593.417 632.455 625.101C608.186 656.035 598.729 696.065 606.593 734.664C610.22 752.482 617.406 769.346 627.744 784.267C630.218 787.845 632.828 791.251 635.642 794.556C636.998 796.191 638.421 797.759 639.879 799.326C640.591 800.109 641.302 800.859 642.048 801.608C642.218 801.779 642.421 801.983 642.59 802.153L642.862 802.426C642.862 802.426 642.963 802.528 642.997 802.562C642.997 802.562 643.031 802.596 643.065 802.63C643.065 802.63 643.065 802.664 643.065 802.698C642.523 803.005 642.014 803.312 641.472 803.618C632.828 808.592 624.015 813.055 614.863 817.041C576.628 833.632 534.97 840.753 493.447 837.755C472.262 836.222 451.314 832.099 431.112 825.49C421.248 822.254 411.656 818.438 402.267 814.043C397.657 811.897 393.115 809.614 388.64 807.195C386.437 806.003 384.234 804.777 382.064 803.516C381.793 803.346 381.522 803.209 381.251 803.039C381.115 802.971 380.98 802.869 380.844 802.801C380.844 802.801 380.776 802.767 380.742 802.732C380.742 802.732 380.742 802.732 380.709 802.732C380.709 802.732 380.641 802.732 380.675 802.732L380.81 802.596C381.183 802.221 381.556 801.813 381.963 801.438C382.708 800.654 383.488 799.871 384.2 799.087C409.52 771.764 422.333 735.039 419.52 697.802C416.503 658.113 396.064 621.83 363.76 598.834C331.356 575.77 290.409 568.479 252.106 578.904L252.174 578.802Z" fill="#DADEE7"/>
</svg>
